<?xml version="1.0" encoding="UTF-8" standalone="no"?> <svg xmlns:dc="http://purl.org/dc/elements/1.1/" xmlns:cc="http://creativecommons.org/ns#" xmlns:rdf="http://www.w3.org/1999/02/22-rdf-syntax-ns#" xmlns:svg="http://www.w3.org/2000/svg" xmlns="http://www.w3.org/2000/svg" xmlns:sodipodi="http://sodipodi.sourceforge.net/DTD/sodipodi-0.dtd" xmlns:inkscape="http://www.inkscape.org/namespaces/inkscape" version="1.1" id="Capa_1" x="0px" y="0px" viewBox="0 0 99.999747 99.999999" xml:space="preserve" sodipodi:docname="sun.svg" width="99.999748" height="100" inkscape:version="0.92.4 (5da689c313, 2019-01-14)"><metadata id="metadata53"><rdf:RDF><cc:Work rdf:about=""><dc:format>image/svg+xml</dc:format><dc:type rdf:resource="http://purl.org/dc/dcmitype/StillImage" /><dc:title></dc:title></cc:Work></rdf:RDF></metadata><defs id="defs51"> </defs><sodipodi:namedview pagecolor="#ffffff" bordercolor="#666666" borderopacity="1" objecttolerance="10" gridtolerance="10" guidetolerance="10" inkscape:pageopacity="0" inkscape:pageshadow="2" inkscape:window-width="1680" inkscape:window-height="981" id="namedview49" showgrid="false" fit-margin-top="0" fit-margin-left="0" fit-margin-right="0" fit-margin-bottom="0" inkscape:zoom="1.4777245" inkscape:cx="49.463875" inkscape:cy="50.000009" inkscape:window-x="-8" inkscape:window-y="-8" inkscape:window-maximized="1" inkscape:current-layer="Capa_1" /> <g id="g14" transform="matrix(1.0733387,0,0,1.0744024,-36.284215,-35.793716)"> <g id="g8"> <polygon id="polygon4" points="121.754,70.502 126.589,73.687 122.787,78.042 126.972,82.038 122.45,85.645 125.851,90.323 120.756,93.063 123.267,98.274 117.766,100.061 119.306,105.635 113.575,106.411 114.093,112.171 108.316,111.911 107.798,117.671 102.158,116.384 100.621,121.96 95.303,119.685 92.794,124.897 87.968,121.709 84.569,126.39 80.388,122.391 76.209,126.39 72.81,121.709 67.983,124.897 65.474,119.685 60.157,121.96 58.617,116.384 52.98,117.671 52.462,111.911 46.684,112.171 47.203,106.411 41.472,105.635 43.011,100.061 37.511,98.274 40.021,93.063 34.927,90.323 38.327,85.645 33.805,82.038 37.987,78.042 34.18,73.687 39.008,70.502 36.04,65.536 41.36,63.264 39.326,57.849 44.964,56.564 43.585,50.872 49.019,50.614 49.019,44.83 55.095,45.607 56.3,39.916 61.886,41.704 63.961,36.289 69.075,39.031 72.052,34.065 76.578,37.671 80.389,33.315 84.195,37.671 88.715,34.065 91.68,39.031 96.773,36.289 98.806,41.704 104.306,39.916 104.812,45.607 110.019,44.83 110.019,50.614 116.32,50.872 115.55,56.563 121.321,57.849 119.353,63.264 124.704,65.536 " style="fill:#f8b000" /> <circle id="circle6" r="34.472" cy="79.945999" cx="80.389" style="fill:#f6d100" /> </g> <polyline id="polyline10" points="80.389,33.315 84.195,37.671 88.715,34.065 91.68,39.031 96.773,36.289 98.806,41.704     104.306,39.916 104.812,45.607 110.019,44.83 110.019,50.614 116.32,50.872 115.55,56.563 121.321,57.849 119.353,63.264     124.704,65.536 121.754,70.502 126.589,73.687 122.787,78.042 126.972,82.038 122.45,85.645 125.851,90.323 120.756,93.063     123.267,98.274 117.766,100.061 119.306,105.635 113.575,106.411 114.093,112.171 108.316,111.911 107.798,117.671     102.158,116.384 100.621,121.96 95.303,119.685 92.794,124.897 87.968,121.709 84.569,126.39 80.388,122.391   " style="fill:#eaa200" /> <path inkscape:connector-curvature="0" id="path12" d="m 80.389,45.475 c 19.037,0 34.472,15.434 34.472,34.471 0,19.038 -15.435,34.472 -34.472,34.472" style="fill:#eac300" /> </g> <g id="g18" transform="translate(-30.388626,-29.852501)"> </g> <g id="g20" transform="translate(-30.388626,-29.852501)"> </g> <g id="g22" transform="translate(-30.388626,-29.852501)"> </g> <g id="g24" transform="translate(-30.388626,-29.852501)"> </g> <g id="g26" transform="translate(-30.388626,-29.852501)"> </g> <g id="g28" transform="translate(-30.388626,-29.852501)"> </g> <g id="g30" transform="translate(-30.388626,-29.852501)"> </g> <g id="g32" transform="translate(-30.388626,-29.852501)"> </g> <g id="g34" transform="translate(-30.388626,-29.852501)"> </g> <g id="g36" transform="translate(-30.388626,-29.852501)"> </g> <g id="g38" transform="translate(-30.388626,-29.852501)"> </g> <g id="g40" transform="translate(-30.388626,-29.852501)"> </g> <g id="g42" transform="translate(-30.388626,-29.852501)"> </g> <g id="g44" transform="translate(-30.388626,-29.852501)"> </g> <g id="g46" transform="translate(-30.388626,-29.852501)"> </g> </svg>
