<?xml version="1.0" encoding="UTF-8" standalone="no"?> <svg xmlns:dc="http://purl.org/dc/elements/1.1/" xmlns:cc="http://creativecommons.org/ns#" xmlns:rdf="http://www.w3.org/1999/02/22-rdf-syntax-ns#" xmlns:svg="http://www.w3.org/2000/svg" xmlns="http://www.w3.org/2000/svg" xmlns:sodipodi="http://sodipodi.sourceforge.net/DTD/sodipodi-0.dtd" xmlns:inkscape="http://www.inkscape.org/namespaces/inkscape" version="1.1" id="Layer_1" x="0px" y="0px" viewBox="0 0 100 99.999999" xml:space="preserve" sodipodi:docname="night.svg" width="100" height="100" inkscape:version="0.92.4 (5da689c313, 2019-01-14)"><metadata id="metadata147"><rdf:RDF><cc:Work rdf:about=""><dc:format>image/svg+xml</dc:format><dc:type rdf:resource="http://purl.org/dc/dcmitype/StillImage" /><dc:title /></cc:Work></rdf:RDF></metadata><defs id="defs145"> <filter style="color-interpolation-filters:sRGB;" inkscape:label="Lighting" id="filter2398"><feComponentTransfer in="blur" result="component" id="feComponentTransfer2396"><feFuncR type="gamma" amplitude="0.677083" exponent="2.66" offset="0" id="feFuncR2390" /><feFuncG type="gamma" amplitude="0.677083" exponent="2.66" offset="0" id="feFuncG2392" /><feFuncB type="gamma" amplitude="0.677083" exponent="2.66" offset="0" id="feFuncB2394" /></feComponentTransfer></filter></defs><sodipodi:namedview pagecolor="#ffffff" bordercolor="#666666" borderopacity="1" objecttolerance="10" gridtolerance="10" guidetolerance="10" inkscape:pageopacity="0" inkscape:pageshadow="2" inkscape:window-width="1680" inkscape:window-height="981" id="namedview143" showgrid="false" fit-margin-top="0" fit-margin-left="0" fit-margin-right="0" fit-margin-bottom="0" inkscape:zoom="2.6721729" inkscape:cx="27.00624" inkscape:cy="47.095702" inkscape:window-x="-8" inkscape:window-y="-8" inkscape:window-maximized="1" inkscape:current-layer="Layer_1" /> <ellipse id="ellipse30" ry="0.80000269" rx="4.8000164" cy="184.86534" cx="-164.16739" style="fill:#dcf9f6;stroke-width:1.00000334" transform="rotate(-45.291703)" /><ellipse id="ellipse32" ry="0.80000269" rx="4.8000164" cy="162.39775" cx="187.09224" style="fill:#dcf9f6;stroke-width:1.00000334" transform="rotate(45.291703)" /> <g id="g4709" transform="scale(0.3125)" style="filter:url(#filter2398)"><circle style="fill:#dcf9f6" cx="160" cy="160" r="160" id="circle34" /><path sodipodi:nodetypes="csc" inkscape:connector-curvature="0" id="path40" d="M 160.46308,319.86769 C 68.995334,320.13231 0.1138029,246.69723 0.1138029,158.9883 0.1138029,73.92557 70.913814,0.078879 160.52923,0.078879" style="fill:#caede7;stroke-width:1.35616601" /><g transform="translate(-89.600006,-90)" id="g50"> <circle id="circle42" r="9.6000004" cy="165.2" cx="138.39999" style="fill:#78a8a0" /> <circle id="circle44" r="1.6" cy="201.2" cx="124.8" style="fill:#78a8a0" /> <circle id="circle46" r="29.6" cy="222" cx="189.60001" style="fill:#78a8a0" /> <circle id="circle48" r="8" cy="157.2" cx="202.39999" style="fill:#78a8a0" /> </g><circle id="circle52" r="2.4000001" cy="63.199997" cx="168" style="fill:#c3e5e0" /><g transform="translate(-89.600006,-90)" id="g60"> <circle id="circle54" r="2.4000001" cy="126" cx="278.39999" style="fill:#78a8a0" /> <circle id="circle56" r="4" cy="127.6" cx="201.60001" style="fill:#78a8a0" /> <circle id="circle58" r="1.6" cy="114" cx="233.60001" style="fill:#78a8a0" /> </g><g transform="translate(-89.600006,-90)" id="g70"> <circle id="circle62" r="6.4000001" cy="206" cx="270.39999" style="fill:#c3e5e0" /> <circle id="circle64" r="4" cy="202" cx="318.39999" style="fill:#c3e5e0" /> <circle id="circle66" r="6.4000001" cy="156.39999" cx="328.79999" style="fill:#c3e5e0" /> <circle id="circle68" r="17.6" cy="285.20001" cx="300.79999" style="fill:#c3e5e0" /> </g><g transform="translate(-89.600006,-90)" id="g80"> <circle id="circle72" r="5.5999999" cy="295.60001" cx="156" style="fill:#78a8a0" /> <circle id="circle74" r="2.4000001" cy="271.60001" cx="213.60001" style="fill:#78a8a0" /> <circle id="circle76" r="9.6000004" cy="331.60001" cx="241.60001" style="fill:#78a8a0" /> <circle id="circle78" r="6.4000001" cy="254.8" cx="124.8" style="fill:#78a8a0" /> </g><circle id="circle82" r="1.6" cy="160.8" cx="177.60001" style="fill:#c3e5e0" /><circle id="circle84" r="4" cy="164" cx="254.39999" style="fill:#95bfb9" /><g transform="translate(-89.600006,-90)" id="g90"> <circle id="circle86" r="9.6000004" cy="339.60001" cx="174.39999" style="fill:#78a8a0" /> <circle id="circle88" r="3.2" cy="305.20001" cx="193.60001" style="fill:#78a8a0" /> </g><circle id="circle92" r="3.2" cy="252.79999" cx="203.19998" style="fill:#c3e5e0" /><g transform="translate(-89.600006,-90)" id="g98"> <circle id="circle94" r="2.4000001" cy="369.20001" cx="241.60001" style="fill:#78a8a0" /> <circle id="circle96" r="1.6" cy="365.20001" cx="201.60001" style="fill:#78a8a0" /> </g><circle id="circle100" r="6.4000001" cy="238.39999" cx="243.19998" style="fill:#95bfb9" /><circle id="circle102" r="4" cy="285.60001" cx="194.39999" style="fill:#c3e5e0" /><circle id="circle104" r="3.2" cy="199.20001" cx="156" style="fill:#78a8a0" /><circle id="circle106" r="6.4000001" cy="210.39999" cx="264" style="fill:#95bfb9" /><circle id="circle108" r="5.5999999" cy="233.60001" cx="44.799988" style="fill:#78a8a0" /><circle id="circle110" r="7.1999998" cy="151.2" cx="220" style="fill:#c3e5e0" /></g> <g id="g112" transform="translate(-199.60001,-200)"> </g> <g id="g114" transform="translate(-199.60001,-200)"> </g> <g id="g116" transform="translate(-199.60001,-200)"> </g> <g id="g118" transform="translate(-199.60001,-200)"> </g> <g id="g120" transform="translate(-199.60001,-200)"> </g> <g id="g122" transform="translate(-199.60001,-200)"> </g> <g id="g124" transform="translate(-199.60001,-200)"> </g> <g id="g126" transform="translate(-199.60001,-200)"> </g> <g id="g128" transform="translate(-199.60001,-200)"> </g> <g id="g130" transform="translate(-199.60001,-200)"> </g> <g id="g132" transform="translate(-199.60001,-200)"> </g> <g id="g134" transform="translate(-199.60001,-200)"> </g> <g id="g136" transform="translate(-199.60001,-200)"> </g> <g id="g138" transform="translate(-199.60001,-200)"> </g> <g id="g140" transform="translate(-199.60001,-200)"> </g> </svg>
